# xmcd
#
# Track frame offsets: 
#        150
#        21884
#        38635
#        57513
#        74644
#        91082
#        110863
#        127532
#        140647
#        156215
#        166715
#        186768
#
# Disc length: 2729 seconds
#
# Revision: 0
# Processed by: cddbd v1.5.2PL0 Copyright (c) Steve Scherf et al.
# Submitted via: ExactAudioCopy v0.95a4
#
DISCID=9f0aa70c
DTITLE=Maria Muldaur - Don't You Feel My Leg
DYEAR=2018
DGENRE=Blues
TTITLE0=Georgia Grind
TTITLE1=Leave My Man Alone
TTITLE2=Loan Me Your Husband
TTITLE3=Scat Skunk
TTITLE4=Now You're Down The Alley
TTITLE5=Here's A Little Girl From Jacksonville
TTITLE6=Nix On Those Lush Heads
TTITLE7=Bow Legged Daddy
TTITLE8=Trombone Man Blues
TTITLE9=A Little Bird Told Me
TTITLE10=Handy Andy
TTITLE11=Don't You Feel My Leg
EXTD=
EXTT0=
EXTT1=
EXTT2=
EXTT3=
EXTT4=
EXTT5=
EXTT6=
EXTT7=
EXTT8=
EXTT9=
EXTT10=
EXTT11=
PLAYORDER=
